<?xml version="1.0" encoding="utf-8"?>
<svg version="1.1" id="Layer_1" xmlns="http://www.w3.org/2000/svg" x="0px" y="0px" viewBox="0 0 368.5 48" style="enable-background:new 0 0 368.5 48;">
  <style type="text/css">
	.st0{fill:#FFFFFF;}
</style>
  <text style="fill: rgb(255, 255, 255); font-family: Roboto; font-size: 36px; white-space: pre; transform-origin: 12.3177px -28.3819px;" transform="matrix(2.087529, 0, 0, 1.728984, 6.129591, -43.782864)" x="2.307" y="39.211">S</text>
  <text style="fill: rgb(255, 255, 255); font-family: Roboto; font-size: 36px; white-space: pre; transform-origin: 96.4873px 14.0479px;" transform="matrix(1.740686, 0, 0, 1.725781, -42.227818, -87.262933)" x="84.481" y="82.322">C</text>
  <text style="fill: rgb(255, 255, 255); font-family: Roboto; font-size: 36px; white-space: pre; transform-origin: 150.686px 26.252px;" transform="matrix(1.607755, 0, 0, 1.731043, -59.335965, -97.074945)" x="137.687" y="92.998">A</text>
  <text style="fill: rgb(255, 255, 255); font-family: Roboto; font-size: 36px; white-space: pre; transform-origin: 166.386px -1.0537px;" transform="matrix(1.568943, 0, 0, 1.721462, -33.634541, -71.138246)" x="153.7" y="66.72">N</text>
  <text style="fill: rgb(255, 255, 255); font-family: Roboto; font-size: 36px; white-space: pre; transform-origin: 206.114px 9.34853px;" transform="matrix(1.900807, 0, 0, 1.725058, -32.236107, -80.597085)" x="195.118" y="76.574">T</text>
  <text style="fill: rgb(255, 255, 255); font-family: Roboto; font-size: 36px; white-space: pre; transform-origin: 304.188px 10.7257px;" transform="matrix(1.703522, 0, 0, 1.729322, -87.868821, -82.52118)" x="291.926" y="78.217">R</text>
  <text style="fill: rgb(255, 255, 255); font-family: Roboto; font-size: 36px; white-space: pre; transform-origin: 150.686px 25.6088px;" transform="matrix(1.6078, 0, 0, 1.73097, 110.791704, -97.541978)" x="137.687" y="92.998">A</text>
  <text style="fill: rgb(255, 255, 255); font-family: Roboto; font-size: 36px; white-space: pre; transform-origin: -230.988px 14.1966px;" transform="matrix(1.740819, 0, 0, 1.717003, -36.31234, -86.70157)" x="84.481" y="82.322">C</text>
  <text style="fill: rgb(255, 255, 255); font-family: Roboto; font-size: 36px; white-space: pre;" transform="matrix(1.578108, 0, 0, 1.723595, -267.290074, -70.994317)" x="375.48" y="67.131">K</text>
</svg>